<?xml version="1.0" encoding="UTF-8" standalone="no"?>
<!DOCTYPE svg PUBLIC "-//W3C//DTD SVG 1.1//EN" "http://www.w3.org/Graphics/SVG/1.1/DTD/svg11.dtd">
<svg width="100%" height="100%" viewBox="0 0 2917 1667" version="1.1" xmlns="http://www.w3.org/2000/svg" xmlns:xlink="http://www.w3.org/1999/xlink" xml:space="preserve" xmlns:serif="http://www.serif.com/" style="fill-rule:evenodd;clip-rule:evenodd;stroke-linejoin:round;stroke-miterlimit:2;">
    <path id="AVM_1" d="M287.879,1666.667L272.637,1666.667C201.526,1666.667 137.744,1638.824 81.291,1583.138C27.097,1528.63 -0.001,1462.873 -0.001,1385.867C-0.001,1307.673 26.527,1240.728 79.582,1185.034C130.382,1131.701 163.211,1100.951 244.903,1090.846L435.874,544.404C425.382,532.504 410.301,525.622 394.436,525.496C346.38,525.496 322.353,554.488 322.353,612.471C322.353,622.574 325.356,637.071 331.361,655.963L291.728,674.871C278.1,639.88 270.78,602.749 270.107,565.204C270.107,455.537 315.747,400.704 407.028,400.704C409.42,400.704 416.625,401.019 428.645,401.65L480.891,404.487L551.154,207.458C515.148,153.286 470.121,126.19 416.071,126.17C352.396,126.17 295.346,164.616 244.921,241.508L210.692,216.925C233.495,181.647 254.213,151.394 272.846,126.167C288.148,104.572 305.99,84.893 325.988,67.555C371.476,23.561 432.556,-0.721 495.834,0.034C537.759,0.034 576.117,15.692 613.267,43.334L629.438,3.726L668.976,20.701L652.084,71.339C666.498,92.789 684.513,141.32 706.13,216.931L942.138,1014.514C948.646,1038.543 965.742,1071.889 970.838,1081.718C990.796,1056.639 1083.471,963.185 1083.471,963.185L1083.471,461.181C995.693,417.106 951.804,349.359 951.804,257.939C951.804,125.717 1012.637,40.013 1134.304,0.826L1150.475,54.697C1084.231,85.728 1051.113,124.907 1051.121,172.235C1051.121,257.135 1115.806,299.579 1245.175,299.568L1245.175,975.401L1343.896,1333.226C1368.513,1318.53 1419.954,1019.476 1496.988,994.993L1496.988,321.51L1423.059,245.602L1372.226,297.027L1335.276,252.952L1524.709,71.744L1663.334,213.786L1741.88,140.328L1742.351,140.857L1893.218,0.036C1933.251,42.505 1960.204,84.133 1974.076,124.919C1983.304,157.591 1987.918,206.563 1987.918,271.836L2281.326,0.036C2349.079,53.908 2382.968,142.878 2382.993,266.944L2683.297,0.036L2810.355,124.919L2881.972,58.786L2916.622,102.861L2775.705,232.64L2775.705,791.057C2775.705,877.603 2793.388,1468.278 2828.838,1491.12L2884.28,1442.149L2916.622,1491.12L2713.335,1664.978C2647.099,1624.192 2613.986,1537.664 2613.997,1405.395L2613.997,205.724L2579.343,171.441L2382.976,342.849L2382.976,1459.291L2431.489,1500.916L2486.931,1451.941L2526.206,1493.57L2336.773,1664.978L2165.835,1503.37L2221.252,1459.291L2221.252,340.399C2221.252,268.582 2204.308,214.711 2170.419,178.786L1990.248,345.299L1990.248,1456.841L2036.448,1500.916L2082.652,1454.391L2119.615,1498.466L1941.732,1664.979L1807.745,1537.646L1733.82,1606.213L1696.857,1564.584L1828.524,1439.701L1828.524,340.401C1828.524,271.837 1812.353,218.782 1780.011,181.234L1742.086,217.151L1658.711,297.026L1658.711,980.305C1665.568,978.952 1672.519,978.135 1679.503,977.859L1693.336,977.859C1701.854,978.089 1710.347,978.906 1718.753,980.305L1718.753,1039.055C1695.65,1037.447 1677.168,1036.63 1663.307,1036.605L1635.586,1036.605C1538.665,1036.605 1453.303,1563.455 1377.486,1605.092C1248.357,1664.321 1378.232,1607.334 1247.486,1663.325L1087.136,1112.408L932.707,1291.704C882.39,1263.987 849.636,1228.287 826.836,1143.825L752.969,882.896L362.023,882.896L291.761,1090.871C372.177,1090.864 450.946,1113.827 518.761,1157.046L558.344,1117.504L706.865,1279.483L558.357,1436.704C495.894,1374.958 325.69,1209.946 252.319,1209.946C196.994,1209.946 150.145,1226.534 111.773,1259.709C71.131,1297.615 50.812,1345.006 50.815,1401.884C50.815,1467.028 74.522,1521.528 121.936,1565.384C168.211,1605.648 223.526,1625.787 287.882,1625.801C294.654,1625.801 301.146,1625.504 307.357,1624.909M576.415,267.984L414.269,739.176L709.732,739.176L576.415,267.984Z" style="fill:rgb(220,224,223);fill-rule:nonzero;"/>
</svg>
